PathFileType	4	(X/Y/Z)	C:\Users\JDoe\SprintMotion.trc
DataRate	CameraRate	NumFrames	NumMarkers	Units	OrigDataRate	OrigDataStartFrame	OrigNumFrames
250.00	250.00	       4	59	mm	250.00	1	       788
Frame#	Time	C7			T8			T12			R.AA			R.AC			R.Scapula			R.HeadHum			R.Hum			R.Epi.Med			R.Epi.Lat			R.Ulna			R.Wrist.Uln			R.Wrist.Rad			R.Hand			L.AA			L.AC			L.Scapula			L.HeadHum			L.Hum			L.Epi.Med			L.Epi.Lat			L.Ulna			L.Wrist.Uln			L.Wrist.Rad			L.Hand			Tete.H			Tete.D			Tete.G			Sacral			R.EIAS			LEIAS			R.Crete			L.Crete			R.GT			R.Hip			R.Knee.Med			R.Knee.Lat			R.TTA			R.Fibula			R.Ankle.Med			R.Ankle.Lat			R.Calca			R.Foot.Med			R.Foot.Lat			L.GT			L.Hip			L.Knee.Med			L.Knee.Lat			L.TTA			L.Fibula			L.Ankle.Med			L.Ankle.Lat			L.Calca			L.Foot.Med			L.Foot.Lat			StartG			StartD			StartAvt			StartArr			
		X1	Y1	Z1	X2	Y2	Z2	X3	Y3	Z3	X4	Y4	Z4	X5	Y5	Z5	X6	Y6	Z6	X7	Y7	Z7	X8	Y8	Z8	X9	Y9	Z9	X10	Y10	Z10	X11	Y11	Z11	X12	Y12	Z12	X13	Y13	Z13	X14	Y14	Z14	X15	Y15	Z15	X16	Y16	Z16	X17	Y17	Z17	X18	Y18	Z18	X19	Y19	Z19	X20	Y20	Z20	X21	Y21	Z21	X22	Y22	Z22	X23	Y23	Z23	X24	Y24	Z24	X25	Y25	Z25	X26	Y26	Z26	X27	Y27	Z27	X28	Y28	Z28	X29	Y29	Z29	X30	Y30	Z30	X31	Y31	Z31	X32	Y32	Z32	X33	Y33	Z33	X34	Y34	Z34	X35	Y35	Z35	X36	Y36	Z36	X37	Y37	Z37	X38	Y38	Z38	X39	Y39	Z39	X40	Y40	Z40	X41	Y41	Z41	X42	Y42	Z42	X43	Y43	Z43	X44	Y44	Z44	X45	Y45	Z45	X46	Y46	Z46	X47	Y47	Z47	X48	Y48	Z48	X49	Y49	Z49	X50	Y50	Z50	X51	Y51	Z51	X52	Y52	Z52	X53	Y53	Z53	X54	Y54	Z54	X55	Y55	Z55	X56	Y56	Z56	X57	Y57	Z57	X58	Y58	Z58	X59	Y59	Z59	

1	0.000	161.60107	69.74284	728.04388	-71.17736	64.48978	745.98181	-205.08426	59.51613	700.81525	111.58701	-35.17493	759.64856	135.82422	-25.41203	610.67834	150.30576	-64.61281	691.50476	123.67219	-152.64497	634.53162	44.09407	-178.18121	502.63040	-27.41971	-103.00633	411.05167	41.39003	-183.42996	413.22433	8.89512	-197.66211	267.56937	-50.58778	-199.97038	132.25946	-5.65471	-163.68410	121.88516	-33.49040	-217.23431	97.75237	100.63717	185.16728	763.78638	123.36851	172.21365	610.64246	141.23552	220.75145	677.23181	111.80801	304.39896	615.77374	3.45789	329.00580	522.81616	-28.29745	272.50327	413.90512	41.12893	343.35373	418.32675	-41.27468	351.48996	298.35379	-63.20190	356.63208	128.76575	-15.53469	318.52026	107.40784	-31.83171	369.65204	94.17280	415.37677	82.66800	629.43402	373.68668	75.29395	522.32684	356.93243	78.09823	729.97906	-377.70099	71.68575	616.39618	-204.98489	-1.41457	465.43024	-195.23488	155.32101	486.49301	-246.72626	-76.81479	572.80884	-234.68900	214.15158	597.72021	-359.85345	-94.46928	488.04959	-234.87534	-44.35880	299.19293	-381.30228	39.47224	72.46323	-362.48639	-80.14409	73.12974	-448.34323	-15.44118	39.63567	-462.76740	-94.94363	78.53580	-730.32379	9.03222	186.82123	-741.39410	-79.28683	198.26154	-766.98590	-37.45245	266.87323	-766.49896	-11.84129	57.64908	-778.48761	-70.75888	57.68900	-319.79535	257.70465	536.39832	-240.37302	271.30688	382.79645	-128.64496	129.22067	192.09737	-95.94908	251.88832	183.62466	-154.30629	186.04938	120.03004	-232.73660	266.89212	185.65170	-470.69708	152.30910	198.58846	-494.15573	242.74652	206.35585	-517.53937	202.53810	273.39539	-491.55844	142.77835	53.96683	-501.84409	216.20419	47.77357	-596.44507	267.03244	25.59967	-931.02203	-121.66546	33.35127	-521.18842	71.05063	46.13464	-1120.16345	77.52641	55.67976	
2	0.004	161.80977	69.70023	727.95416	-71.00466	64.49579	745.97223	-204.96207	59.51513	700.80920	111.72092	-35.21058	759.58582	136.00609	-25.38037	610.49561	150.44438	-64.58653	691.43109	123.76331	-152.60118	634.43787	44.21477	-178.19835	502.59363	-27.42542	-103.07554	411.12109	41.44771	-183.44658	413.16138	8.85091	-197.63351	267.49023	-50.67317	-199.93848	132.20963	-5.67868	-163.68828	121.91325	-33.63490	-217.28065	97.82005	100.80225	185.19356	763.76825	123.55411	172.21391	610.46783	141.46855	220.72281	677.19910	112.02607	304.43814	615.74664	3.53119	329.05795	522.84570	-27.98327	272.39191	413.71866	41.28023	343.40775	418.31177	-41.12379	351.40295	298.24637	-63.20505	356.62476	128.76750	-15.51833	318.49854	107.40296	-31.83746	369.67664	94.16302	415.54102	82.69563	629.36182	373.87354	75.33132	522.36261	357.12561	78.15791	729.89984	-377.61279	71.71151	616.42328	-204.89355	-1.32608	465.43213	-195.01988	155.08305	486.36447	-246.63644	-76.86270	572.85236	-234.49168	214.14090	597.60370	-359.77588	-94.47318	488.00375	-234.86079	-44.30124	299.09030	-381.42627	39.47129	72.47747	-362.56540	-80.13808	73.13351	-448.32068	-15.39808	39.74706	-462.79221	-94.93600	78.53522	-730.31604	9.04153	186.80098	-741.49963	-79.21175	198.14795	-767.01526	-37.46738	266.86905	-766.48102	-11.85113	57.62054	-778.45471	-70.68292	57.68285	-319.69165	257.66565	536.39282	-240.23244	271.36679	382.83331	-128.57344	129.09499	192.04724	-95.95872	251.89432	183.60750	-154.33754	186.12305	119.84655	-232.73322	266.87042	185.61565	-470.61755	152.32564	198.41699	-494.15927	242.72562	206.34218	-517.49878	202.52533	273.37433	-491.54715	142.76854	53.94363	-501.84409	216.20419	47.77358	-596.45795	266.99310	25.56419	-931.02039	-121.68095	33.36642	-521.18951	71.04933	46.13910	-1120.18213	77.52003	55.70846	
3	0.008	162.01863	69.66036	727.86499	-70.83043	64.50212	745.96295	-204.83810	59.51431	700.80408	111.85813	-35.24520	759.52368	136.18353	-25.34826	610.31836	150.58382	-64.56024	691.35736	123.85635	-152.55801	634.34497	44.33688	-178.21509	502.55804	-27.43047	-103.14472	411.18948	41.50702	-183.46144	413.09882	8.80867	-197.60620	267.41339	-50.75817	-199.90704	132.15909	-5.70225	-163.69179	121.93954	-33.77806	-217.32634	97.88589	100.97019	185.22041	763.74908	123.74269	172.21512	610.29700	141.70377	220.69586	677.16705	112.24422	304.47665	615.71820	3.60930	329.11017	522.87543	-27.67327	272.28372	413.53488	41.43511	343.46005	418.29388	-40.97459	351.31995	298.14230	-63.20816	356.61752	128.76926	-15.50200	318.47693	107.39740	-31.84299	369.69998	94.15363	415.70544	82.72119	629.28888	374.05905	75.36783	522.39484	357.31592	78.21374	729.82001	-377.52130	71.73714	616.45001	-204.79837	-1.23211	465.43060	-194.80606	154.85480	486.24146	-246.54402	-76.91006	572.89490	-234.29900	214.13222	597.49194	-359.69641	-94.47762	487.96045	-234.84613	-44.24586	298.99173	-381.54947	39.47039	72.49107	-362.64487	-80.13220	73.13644	-448.30133	-15.35616	39.85254	-462.81979	-94.92805	78.53408	-730.30872	9.05055	186.78152	-741.60211	-79.13934	198.03946	-767.04547	-37.48257	266.86673	-766.46057	-11.86135	57.59219	-778.42310	-70.61084	57.67649	-319.58478	257.62714	536.38721	-240.09363	271.42487	382.86627	-128.50333	128.97623	191.99240	-95.96803	251.89964	183.58795	-154.36880	186.19115	119.66550	-232.72992	266.84711	185.57704	-470.53973	152.34108	198.25090	-494.16284	242.70358	206.32797	-517.45868	202.51004	273.35312	-491.53674	142.75810	53.92035	-501.84412	216.20419	47.77359	-596.46997	266.95444	25.52904	-931.01849	-121.69563	33.38063	-521.19037	71.04826	46.14278	-1120.19958	77.51395	55.73535	
4	0.012	162.22791	69.62564	727.77679	-70.65329	64.50920	745.95441	-204.71088	59.51385	700.80066	112.00201	-35.27785	759.46289	136.35255	-25.31543	610.15143	150.72452	-64.53423	691.28345	123.95295	-152.51624	634.25397	44.46145	-178.23106	502.52493	-27.43420	-103.21365	411.25558	41.56947	-183.47318	413.03723	8.77016	-197.58105	267.34055	-50.84209	-199.87662	132.10739	-5.72514	-163.69432	121.96272	-33.91846	-217.37045	97.94812	101.14393	185.24847	763.72778	123.93681	172.21820	610.13416	141.94316	220.67201	677.13593	112.46236	304.51410	615.68707	3.69680	329.16235	522.90515	-27.37151	272.18176	413.35596	41.59653	343.50876	418.27023	-40.82854	351.24411	298.04413	-63.21121	356.61041	128.77095	-15.48584	318.45578	107.39049	-31.84814	369.72101	94.14494	415.87012	82.74255	629.21442	374.24176	75.40257	522.41986	357.50131	78.26263	729.73877	-377.42343	71.76258	616.47626	-204.69588	-1.12757	465.42230	-194.59473	154.64545	486.12927	-246.44626	-76.95634	572.93518	-234.11429	214.12689	597.38855	-359.61343	-94.48328	487.92215	-234.83109	-44.19389	298.90033	-381.67188	39.46954	72.50375	-362.72528	-80.12654	73.13798	-448.28781	-15.31607	39.94771	-462.85297	-94.91929	78.53217	-730.30225	9.05895	186.76370	-741.69928	-79.07174	197.94009	-767.07721	-37.49836	266.86789	-766.43542	-11.87230	57.56430	-778.39429	-70.54600	57.66999	-319.47189	257.58963	536.38147	-239.95839	271.47961	382.89172	-128.43584	128.86948	191.92915	-95.97687	251.90396	183.56412	-154.40001	186.24863	119.48916	-232.72664	266.82074	185.53368	-470.46564	152.35449	198.09506	-494.16641	242.67943	206.31274	-517.41956	202.49007	273.33197	-491.52783	142.74655	53.89690	-501.84412	216.20419	47.77360	-596.48053	266.91681	25.49434	-931.01617	-121.70875	33.39310	-521.19098	71.04756	46.14520	-1120.21521	77.50841	55.75899	
